<svg width="20" height="20" viewBox="0 0 20 20" fill="none" xmlns="http://www.w3.org/2000/svg">
<path d="M10 0.000244141C12.717 0.000244141 13.056 0.0102441 14.122 0.0602441C15.187 0.110244 15.912 0.277244 16.55 0.525244C17.21 0.779244 17.766 1.12324 18.322 1.67824C18.8305 2.17814 19.224 2.78283 19.475 3.45024C19.722 4.08724 19.89 4.81324 19.94 5.87824C19.987 6.94424 20 7.28324 20 10.0002C20 12.7172 19.99 13.0562 19.94 14.1222C19.89 15.1872 19.722 15.9122 19.475 16.5502C19.2247 17.218 18.8311 17.8229 18.322 18.3222C17.822 18.8306 17.2173 19.224 16.55 19.4752C15.913 19.7222 15.187 19.8902 14.122 19.9402C13.056 19.9872 12.717 20.0002 10 20.0002C7.283 20.0002 6.944 19.9902 5.878 19.9402C4.813 19.8902 4.088 19.7222 3.45 19.4752C2.78233 19.2247 2.17753 18.8312 1.678 18.3222C1.16941 17.8224 0.775931 17.2177 0.525 16.5502C0.277 15.9132 0.11 15.1872 0.0599999 14.1222C0.0129999 13.0562 0 12.7172 0 10.0002C0 7.28324 0.00999994 6.94424 0.0599999 5.87824C0.11 4.81224 0.277 4.08824 0.525 3.45024C0.775236 2.78242 1.1688 2.17757 1.678 1.67824C2.17767 1.16948 2.78243 0.775973 3.45 0.525244C4.088 0.277244 4.812 0.110244 5.878 0.0602441C6.944 0.0132441 7.283 0.000244141 10 0.000244141ZM10 5.00024C8.67392 5.00024 7.40215 5.52703 6.46447 6.46471C5.52678 7.40239 5 8.67416 5 10.0002C5 11.3263 5.52678 12.5981 6.46447 13.5358C7.40215 14.4735 8.67392 15.0002 10 15.0002C11.3261 15.0002 12.5979 14.4735 13.5355 13.5358C14.4732 12.5981 15 11.3263 15 10.0002C15 8.67416 14.4732 7.40239 13.5355 6.46471C12.5979 5.52703 11.3261 5.00024 10 5.00024ZM16.5 4.75024C16.5 4.41872 16.3683 4.10078 16.1339 3.86636C15.8995 3.63194 15.5815 3.50024 15.25 3.50024C14.9185 3.50024 14.6005 3.63194 14.3661 3.86636C14.1317 4.10078 14 4.41872 14 4.75024C14 5.08176 14.1317 5.39971 14.3661 5.63413C14.6005 5.86855 14.9185 6.00024 15.25 6.00024C15.5815 6.00024 15.8995 5.86855 16.1339 5.63413C16.3683 5.39971 16.5 5.08176 16.5 4.75024ZM10 7.00024C10.7956 7.00024 11.5587 7.31631 12.1213 7.87892C12.6839 8.44153 13 9.20459 13 10.0002C13 10.7959 12.6839 11.559 12.1213 12.1216C11.5587 12.6842 10.7956 13.0002 10 13.0002C9.20435 13.0002 8.44129 12.6842 7.87868 12.1216C7.31607 11.559 7 10.7959 7 10.0002C7 9.20459 7.31607 8.44153 7.87868 7.87892C8.44129 7.31631 9.20435 7.00024 10 7.00024Z" fill="white"/>
</svg>
